<svg width="74" height="62" viewBox="0 0 74 62" fill="none" xmlns="http://www.w3.org/2000/svg">
<g clip-path="url(#clip0)">
<path d="M65.5153 45.7933H40.5157C40.1125 45.7933 39.7214 45.9275 39.4055 46.1779L20.7754 60.8579C20.294 61.2366 20.5647 62 21.1815 62H65.8012C70.212 62 74.1775 58.0758 73.8676 53.3554C73.5848 49.0495 69.884 45.7933 65.5153 45.7933" fill="#00C9DB"/>
<path d="M45.2903 30.4676C45.2903 30.4467 45.2873 30.4258 45.2843 30.402C45.1459 28.1894 44.0959 26.0394 42.1883 24.5634L13.184 1.70999C9.64275 -1.03337 4.51886 -0.416111 1.73879 3.08466C-1.04129 6.58841 -0.421489 11.6487 3.11679 14.3921L24.1449 30.9596L3.11679 47.5271C-0.421489 50.2675 -1.04129 55.3308 1.73879 58.8316C4.51886 62.3323 9.64275 62.9496 13.184 60.2062L42.1913 37.3499C44.0989 35.8738 45.1489 33.7238 45.2873 31.5113C45.2903 31.4904 45.2903 31.4695 45.2933 31.4457C45.3024 31.2817 45.3054 31.1206 45.3054 30.9566C45.3054 30.7956 45.2994 30.6316 45.2903 30.4676" fill="#0D55FF"/>
<path d="M74 53.8951C74 58.371 70.3324 61.997 65.8012 61.997C61.2761 61.997 57.6084 58.368 57.6084 53.8951C57.6084 49.4223 61.2761 45.7933 65.8012 45.7933C70.3324 45.7933 74 49.4223 74 53.8951" fill="#7000F2"/>
</g>
<defs>
<clipPath id="clip0">
<rect width="74" height="62" fill="white"/>
</clipPath>
</defs>
</svg>
