<svg width="248" height="74" viewBox="0 0 248 74" fill="none" xmlns="http://www.w3.org/2000/svg">
<path d="M94.3633 43.9883V44.5625C94.3633 46.6953 94.6367 48.6823 95.1836 50.5234C95.7305 52.3464 96.5052 53.9232 97.5078 55.2539C98.5104 56.6029 99.7318 57.6602 101.172 58.4258C102.612 59.1732 104.234 59.5469 106.039 59.5469C107.753 59.5469 109.266 59.237 110.578 58.6172C111.891 57.9792 113.021 57.0768 113.969 55.9102L114.27 59H120.203V17H113.668V32.1758C112.72 31.1185 111.626 30.3073 110.387 29.7422C109.165 29.1589 107.734 28.8672 106.094 28.8672C104.271 28.8672 102.63 29.2409 101.172 29.9883C99.7318 30.7174 98.5104 31.7474 97.5078 33.0781C96.487 34.4089 95.7031 36.0039 95.1562 37.8633C94.6276 39.7044 94.3633 41.7461 94.3633 43.9883ZM100.898 44.5625V43.9883C100.898 42.6576 101.026 41.4089 101.281 40.2422C101.536 39.0573 101.938 38.0182 102.484 37.125C103.031 36.2318 103.733 35.5299 104.59 35.0195C105.465 34.5091 106.513 34.2539 107.734 34.2539C109.193 34.2539 110.396 34.582 111.344 35.2383C112.31 35.8763 113.085 36.7422 113.668 37.8359V50.5508C113.085 51.6628 112.31 52.5469 111.344 53.2031C110.378 53.8411 109.156 54.1602 107.68 54.1602C106.477 54.1602 105.447 53.9141 104.59 53.4219C103.733 52.9115 103.031 52.2188 102.484 51.3438C101.938 50.4688 101.536 49.4479 101.281 48.2812C101.026 47.1146 100.898 45.875 100.898 44.5625ZM139.88 59.5469C142.76 59.5469 145.212 58.9818 147.235 57.8516C149.277 56.7214 150.79 55.4453 151.774 54.0234L148.274 50.6328C147.363 51.7995 146.205 52.7018 144.802 53.3398C143.398 53.9596 141.885 54.2695 140.263 54.2695C139.078 54.2695 137.984 54.069 136.981 53.668C135.997 53.2669 135.14 52.7018 134.411 51.9727C133.682 51.2799 133.108 50.4961 132.688 49.6211C132.269 48.7461 131.959 47.6615 131.759 46.3672V46.2305H152.266V43.4141C152.266 41.2995 151.984 39.349 151.419 37.5625C150.854 35.776 150.015 34.2357 148.903 32.9414C147.791 31.6654 146.415 30.6719 144.774 29.9609C143.134 29.2318 141.247 28.8672 139.114 28.8672C137.2 28.8672 135.395 29.2318 133.7 29.9609C132.023 30.6719 130.546 31.6927 129.27 33.0234C127.994 34.3542 126.992 35.9583 126.263 37.8359C125.533 39.7135 125.169 41.8099 125.169 44.125V45.2461C125.169 47.2695 125.515 49.1562 126.208 50.9062C126.919 52.638 127.921 54.1419 129.216 55.418C130.51 56.7122 132.059 57.724 133.864 58.4531C135.687 59.1823 137.692 59.5469 139.88 59.5469ZM139.087 34.1719C140.18 34.1719 141.138 34.3633 141.958 34.7461C142.796 35.1107 143.489 35.6029 144.036 36.2227C144.601 36.8607 145.039 37.6081 145.348 38.4648C145.658 39.3034 145.813 40.151 145.813 41.0078V41.4453H131.895C132.096 40.3151 132.406 39.3034 132.825 38.4102C133.244 37.5169 133.764 36.7513 134.384 36.1133C135.003 35.4935 135.705 35.0195 136.489 34.6914C137.291 34.3451 138.157 34.1719 139.087 34.1719ZM166.584 59H172.353L183.947 29.4141H177.166L169.92 50.8789L169.482 52.8477L169.045 50.8789L161.716 29.4141H154.935L166.584 59ZM201.545 59.5469C204.426 59.5469 206.877 58.9818 208.901 57.8516C210.942 56.7214 212.455 55.4453 213.44 54.0234L209.94 50.6328C209.028 51.7995 207.871 52.7018 206.467 53.3398C205.064 53.9596 203.551 54.2695 201.928 54.2695C200.743 54.2695 199.649 54.069 198.647 53.668C197.662 53.2669 196.806 52.7018 196.077 51.9727C195.347 51.2799 194.773 50.4961 194.354 49.6211C193.935 48.7461 193.625 47.6615 193.424 46.3672V46.2305H213.932V43.4141C213.932 41.2995 213.649 39.349 213.084 37.5625C212.519 35.776 211.681 34.2357 210.569 32.9414C209.457 31.6654 208.08 30.6719 206.44 29.9609C204.799 29.2318 202.912 28.8672 200.78 28.8672C198.866 28.8672 197.061 29.2318 195.366 29.9609C193.689 30.6719 192.212 31.6927 190.936 33.0234C189.66 34.3542 188.657 35.9583 187.928 37.8359C187.199 39.7135 186.834 41.8099 186.834 44.125V45.2461C186.834 47.2695 187.181 49.1562 187.873 50.9062C188.584 52.638 189.587 54.1419 190.881 55.418C192.176 56.7122 193.725 57.724 195.53 58.4531C197.353 59.1823 199.358 59.5469 201.545 59.5469ZM200.752 34.1719C201.846 34.1719 202.803 34.3633 203.623 34.7461C204.462 35.1107 205.155 35.6029 205.702 36.2227C206.267 36.8607 206.704 37.6081 207.014 38.4648C207.324 39.3034 207.479 40.151 207.479 41.0078V41.4453H193.561C193.761 40.3151 194.071 39.3034 194.491 38.4102C194.91 37.5169 195.429 36.7513 196.049 36.1133C196.669 35.4935 197.371 35.0195 198.155 34.6914C198.957 34.3451 199.823 34.1719 200.752 34.1719ZM217.366 43.9336V44.5078C217.366 46.6771 217.676 48.6732 218.296 50.4961C218.916 52.319 219.818 53.9049 221.003 55.2539C222.17 56.6029 223.61 57.6602 225.323 58.4258C227.037 59.1914 228.978 59.5742 231.148 59.5742C233.299 59.5742 235.222 59.1914 236.917 58.4258C238.631 57.6602 240.071 56.6029 241.238 55.2539C242.404 53.9049 243.297 52.319 243.917 50.4961C244.537 48.6732 244.847 46.6771 244.847 44.5078V43.9336C244.847 41.7826 244.537 39.7956 243.917 37.9727C243.297 36.1315 242.404 34.5365 241.238 33.1875C240.053 31.8385 238.603 30.7812 236.89 30.0156C235.195 29.25 233.262 28.8672 231.093 28.8672C228.924 28.8672 226.991 29.25 225.296 30.0156C223.601 30.7812 222.17 31.8385 221.003 33.1875C219.818 34.5365 218.916 36.1315 218.296 37.9727C217.676 39.7956 217.366 41.7826 217.366 43.9336ZM223.902 44.5078V43.9336C223.902 42.6393 224.038 41.3997 224.312 40.2148C224.603 39.0299 225.041 37.9909 225.624 37.0977C226.226 36.2044 226.973 35.4935 227.866 34.9648C228.778 34.4362 229.853 34.1719 231.093 34.1719C232.351 34.1719 233.426 34.4362 234.32 34.9648C235.231 35.4935 235.978 36.2044 236.562 37.0977C237.145 37.9909 237.583 39.0299 237.874 40.2148C238.166 41.3997 238.312 42.6393 238.312 43.9336V44.5078C238.312 45.8385 238.166 47.0964 237.874 48.2812C237.601 49.4661 237.172 50.5052 236.589 51.3984C236.006 52.2917 235.258 53.0026 234.347 53.5312C233.435 54.0417 232.369 54.2969 231.148 54.2969C229.89 54.2969 228.805 54.0417 227.894 53.5312C226.982 53.0026 226.226 52.2917 225.624 51.3984C225.041 50.5052 224.603 49.4661 224.312 48.2812C224.038 47.0964 223.902 45.8385 223.902 44.5078Z" fill="white"/>
<g clip-path="url(#clip0)">
<path d="M65.5153 51.7933H40.5157C40.1125 51.7933 39.7214 51.9275 39.4055 52.1779L20.7754 66.8579C20.294 67.2366 20.5647 68 21.1815 68H65.8012C70.212 68 74.1775 64.0758 73.8676 59.3554C73.5848 55.0495 69.884 51.7933 65.5153 51.7933" fill="#00C9DB"/>
<path d="M45.2903 36.4676C45.2903 36.4467 45.2873 36.4258 45.2843 36.402C45.1459 34.1894 44.0959 32.0394 42.1883 30.5634L13.184 7.70999C9.64275 4.96663 4.51886 5.58389 1.73879 9.08466C-1.04129 12.5884 -0.421489 17.6487 3.11679 20.3921L24.1449 36.9596L3.11679 53.5271C-0.421489 56.2675 -1.04129 61.3308 1.73879 64.8316C4.51886 68.3323 9.64275 68.9496 13.184 66.2062L42.1913 43.3499C44.0989 41.8738 45.1489 39.7238 45.2873 37.5113C45.2903 37.4904 45.2903 37.4695 45.2933 37.4457C45.3024 37.2817 45.3054 37.1206 45.3054 36.9566C45.3054 36.7956 45.2994 36.6316 45.2903 36.4676" fill="#0D55FF"/>
<path d="M74 59.8951C74 64.371 70.3324 67.997 65.8012 67.997C61.2761 67.997 57.6084 64.368 57.6084 59.8951C57.6084 55.4223 61.2761 51.7933 65.8012 51.7933C70.3324 51.7933 74 55.4223 74 59.8951" fill="#7000F2"/>
</g>
<defs>
<clipPath id="clip0">
<rect width="74" height="62" fill="white" transform="translate(0 6)"/>
</clipPath>
</defs>
</svg>
