<svg width="233" height="233" viewBox="0 0 233 233" fill="none" xmlns="http://www.w3.org/2000/svg">
<rect width="233" height="233" rx="20" fill="url(#paint0_linear_9_12)"/>
<path d="M164.967 115.939C164.967 115.893 164.961 115.848 164.954 115.797C164.655 111.009 162.384 106.356 158.257 103.162L95.5192 53.7081C87.8592 47.7715 76.7759 49.1072 70.7624 56.6828C64.7489 64.2648 66.0895 75.2151 73.7431 81.1517L119.228 117.003L73.7431 152.855C66.0895 158.785 64.7489 169.742 70.7624 177.317C76.7759 184.893 87.8592 186.229 95.5192 180.292L158.264 130.832C162.39 127.637 164.661 122.985 164.961 118.197C164.967 118.152 164.967 118.107 164.974 118.055C164.994 117.7 165 117.352 165 116.997C165 116.648 164.987 116.293 164.967 115.939Z" fill="white"/>
<defs>
<linearGradient id="paint0_linear_9_12" x1="116.5" y1="0" x2="116.5" y2="233" gradientUnits="userSpaceOnUse">
<stop stop-color="#00B8C9"/>
<stop offset="1" stop-color="#0D55FF"/>
</linearGradient>
</defs>
</svg>
